<svg xmlns="http://www.w3.org/2000/svg" width="448" height="180" fill="none"><g clip-path="url(#a)"><mask id="b" width="443" height="170" x="2" y="5" fill="#000" maskUnits="userSpaceOnUse"><path fill="#fff" d="M2 5h443v170H2z"/><path d="M97.11 172c-6.708 0-11.856-2.184-15.444-6.552-3.432-4.368-5.148-9.516-5.148-15.444v-10.062c-4.524.156-8.892.234-13.104.234H52.182c-5.304 0-10.686-.078-16.146-.234-5.46-.312-10.452-1.326-14.976-3.042-4.524-1.872-8.19-4.992-10.998-9.36-2.808-4.524-4.212-10.998-4.212-19.422 0-4.836 1.326-10.53 3.978-17.082 2.808-6.708 6.396-13.572 10.764-20.592 4.524-7.176 9.282-13.884 14.274-20.124C43.602 39.556 51.09 31.132 57.33 25.048c6.24-6.24 11.934-10.608 17.082-13.104C79.56 9.448 84.708 8.2 89.856 8.2c9.828 0 16.614 2.964 20.358 8.892 3.9 5.928 5.85 15.6 5.85 29.016V97.588h5.616c4.836 0 8.814 1.092 11.934 3.276 3.276 2.028 5.694 4.602 7.254 7.722 1.716 3.12 2.574 6.24 2.574 9.36 0 4.836-1.56 9.282-4.68 13.338-3.12 4.056-9.36 6.474-18.72 7.254-1.092.156-2.34.234-3.744.234v11.232c0 5.772-1.638 10.92-4.914 15.444-3.276 4.368-8.034 6.552-14.274 6.552ZM76.752 64.36c-3.744 4.836-6.942 8.892-9.594 12.168a144.45 144.45 0 0 0-7.488 9.594c-2.34 3.276-4.836 7.41-7.488 12.402h7.722c4.68-.156 10.062-.234 16.146-.234V79.102c.156-5.928.39-10.842.702-14.742ZM223.633 172c-10.452 0-19.89-2.106-28.314-6.318s-15.678-10.062-21.762-17.55c-5.928-7.644-10.53-16.38-13.806-26.208-3.12-9.984-4.68-20.592-4.68-31.824 0-10.608 1.56-20.748 4.68-30.42 3.12-9.828 7.644-18.564 13.572-26.208 6.084-7.8 13.338-13.962 21.762-18.486 8.424-4.524 17.94-6.786 28.548-6.786 13.884 0 25.974 3.666 36.27 10.998 10.296 7.176 18.252 16.926 23.868 29.25 5.772 12.324 8.658 26.208 8.658 41.652 0 10.296-1.638 20.358-4.914 30.186-3.12 9.672-7.722 18.408-13.806 26.208-5.928 7.8-13.104 14.04-21.528 18.72-8.424 4.524-17.94 6.786-28.548 6.786Zm0-43.758c6.084 0 10.92-1.716 14.508-5.148 3.744-3.432 6.474-7.878 8.19-13.338 1.716-5.46 2.574-11.232 2.574-17.316s-.858-11.778-2.574-17.082c-1.56-5.46-4.212-9.828-7.956-13.104-3.744-3.432-8.658-5.148-14.742-5.148-6.084 0-10.998 1.716-14.742 5.148-3.588 3.276-6.24 7.644-7.956 13.104-1.716 5.304-2.574 10.998-2.574 17.082 0 4.836.78 10.062 2.34 15.678 1.716 5.46 4.368 10.218 7.956 14.274 3.744 3.9 8.736 5.85 14.976 5.85ZM395.323 172c-6.708 0-11.856-2.184-15.444-6.552-3.432-4.368-5.148-9.516-5.148-15.444v-10.062c-4.524.156-8.892.234-13.104.234h-11.232c-5.304 0-10.686-.078-16.146-.234-5.46-.312-10.452-1.326-14.976-3.042-4.524-1.872-8.19-4.992-10.998-9.36-2.808-4.524-4.212-10.998-4.212-19.422 0-4.836 1.326-10.53 3.978-17.082 2.808-6.708 6.396-13.572 10.764-20.592 4.524-7.176 9.282-13.884 14.274-20.124 8.736-10.764 16.224-19.188 22.464-25.272 6.24-6.24 11.934-10.608 17.082-13.104 5.148-2.496 10.296-3.744 15.444-3.744 9.828 0 16.614 2.964 20.358 8.892 3.9 5.928 5.85 15.6 5.85 29.016V97.588h5.616c4.836 0 8.814 1.092 11.934 3.276 3.276 2.028 5.694 4.602 7.254 7.722 1.716 3.12 2.574 6.24 2.574 9.36 0 4.836-1.56 9.282-4.68 13.338-3.12 4.056-9.36 6.474-18.72 7.254-1.092.156-2.34.234-3.744.234v11.232c0 5.772-1.638 10.92-4.914 15.444-3.276 4.368-8.034 6.552-14.274 6.552ZM374.965 64.36c-3.744 4.836-6.942 8.892-9.594 12.168a144.45 144.45 0 0 0-7.488 9.594c-2.34 3.276-4.836 7.41-7.488 12.402h7.722c4.68-.156 10.062-.234 16.146-.234V79.102c.156-5.928.39-10.842.702-14.742Z"/></mask><path fill="#FFA826" fill-opacity=".4" d="M97.11 172c-6.708 0-11.856-2.184-15.444-6.552-3.432-4.368-5.148-9.516-5.148-15.444v-10.062c-4.524.156-8.892.234-13.104.234H52.182c-5.304 0-10.686-.078-16.146-.234-5.46-.312-10.452-1.326-14.976-3.042-4.524-1.872-8.19-4.992-10.998-9.36-2.808-4.524-4.212-10.998-4.212-19.422 0-4.836 1.326-10.53 3.978-17.082 2.808-6.708 6.396-13.572 10.764-20.592 4.524-7.176 9.282-13.884 14.274-20.124C43.602 39.556 51.09 31.132 57.33 25.048c6.24-6.24 11.934-10.608 17.082-13.104C79.56 9.448 84.708 8.2 89.856 8.2c9.828 0 16.614 2.964 20.358 8.892 3.9 5.928 5.85 15.6 5.85 29.016V97.588h5.616c4.836 0 8.814 1.092 11.934 3.276 3.276 2.028 5.694 4.602 7.254 7.722 1.716 3.12 2.574 6.24 2.574 9.36 0 4.836-1.56 9.282-4.68 13.338-3.12 4.056-9.36 6.474-18.72 7.254-1.092.156-2.34.234-3.744.234v11.232c0 5.772-1.638 10.92-4.914 15.444-3.276 4.368-8.034 6.552-14.274 6.552ZM76.752 64.36c-3.744 4.836-6.942 8.892-9.594 12.168a144.45 144.45 0 0 0-7.488 9.594c-2.34 3.276-4.836 7.41-7.488 12.402h7.722c4.68-.156 10.062-.234 16.146-.234V79.102c.156-5.928.39-10.842.702-14.742ZM223.633 172c-10.452 0-19.89-2.106-28.314-6.318s-15.678-10.062-21.762-17.55c-5.928-7.644-10.53-16.38-13.806-26.208-3.12-9.984-4.68-20.592-4.68-31.824 0-10.608 1.56-20.748 4.68-30.42 3.12-9.828 7.644-18.564 13.572-26.208 6.084-7.8 13.338-13.962 21.762-18.486 8.424-4.524 17.94-6.786 28.548-6.786 13.884 0 25.974 3.666 36.27 10.998 10.296 7.176 18.252 16.926 23.868 29.25 5.772 12.324 8.658 26.208 8.658 41.652 0 10.296-1.638 20.358-4.914 30.186-3.12 9.672-7.722 18.408-13.806 26.208-5.928 7.8-13.104 14.04-21.528 18.72-8.424 4.524-17.94 6.786-28.548 6.786Zm0-43.758c6.084 0 10.92-1.716 14.508-5.148 3.744-3.432 6.474-7.878 8.19-13.338 1.716-5.46 2.574-11.232 2.574-17.316s-.858-11.778-2.574-17.082c-1.56-5.46-4.212-9.828-7.956-13.104-3.744-3.432-8.658-5.148-14.742-5.148-6.084 0-10.998 1.716-14.742 5.148-3.588 3.276-6.24 7.644-7.956 13.104-1.716 5.304-2.574 10.998-2.574 17.082 0 4.836.78 10.062 2.34 15.678 1.716 5.46 4.368 10.218 7.956 14.274 3.744 3.9 8.736 5.85 14.976 5.85ZM395.323 172c-6.708 0-11.856-2.184-15.444-6.552-3.432-4.368-5.148-9.516-5.148-15.444v-10.062c-4.524.156-8.892.234-13.104.234h-11.232c-5.304 0-10.686-.078-16.146-.234-5.46-.312-10.452-1.326-14.976-3.042-4.524-1.872-8.19-4.992-10.998-9.36-2.808-4.524-4.212-10.998-4.212-19.422 0-4.836 1.326-10.53 3.978-17.082 2.808-6.708 6.396-13.572 10.764-20.592 4.524-7.176 9.282-13.884 14.274-20.124 8.736-10.764 16.224-19.188 22.464-25.272 6.24-6.24 11.934-10.608 17.082-13.104 5.148-2.496 10.296-3.744 15.444-3.744 9.828 0 16.614 2.964 20.358 8.892 3.9 5.928 5.85 15.6 5.85 29.016V97.588h5.616c4.836 0 8.814 1.092 11.934 3.276 3.276 2.028 5.694 4.602 7.254 7.722 1.716 3.12 2.574 6.24 2.574 9.36 0 4.836-1.56 9.282-4.68 13.338-3.12 4.056-9.36 6.474-18.72 7.254-1.092.156-2.34.234-3.744.234v11.232c0 5.772-1.638 10.92-4.914 15.444-3.276 4.368-8.034 6.552-14.274 6.552ZM374.965 64.36c-3.744 4.836-6.942 8.892-9.594 12.168a144.45 144.45 0 0 0-7.488 9.594c-2.34 3.276-4.836 7.41-7.488 12.402h7.722c4.68-.156 10.062-.234 16.146-.234V79.102c.156-5.928.39-10.842.702-14.742Z"/><path fill="#F57D00" d="m81.666 165.448-2.359 1.853.02.026.02.025 2.319-1.904Zm-5.148-25.506h3v-3.105l-3.103.107.103 2.998Zm-40.482 0-.171 2.995.043.003.042.001.086-2.999ZM21.06 136.9l-1.147 2.772.041.017.042.016 1.064-2.805Zm-10.998-9.36-2.549 1.582.013.02.012.02 2.524-1.622Zm-.234-36.504-2.767-1.158-.007.016-.007.016 2.781 1.126Zm10.764-20.592-2.538-1.6-.005.008-.004.007 2.547 1.585ZM34.866 50.32l-2.33-1.89-.006.008-.007.008 2.343 1.874ZM57.33 25.048l2.094 2.148.014-.013.013-.014-2.121-2.121Zm17.082-13.104 1.309 2.7-1.309-2.7Zm35.802 5.148-2.536 1.602.014.024.016.023 2.506-1.649Zm5.85 80.496h-3v3h3v-3Zm17.55 3.276-1.72 2.458.069.048.072.045 1.579-2.551Zm7.254 7.722-2.683 1.342.026.052.028.052 2.629-1.446Zm-2.106 22.698 2.378 1.829-2.378-1.829Zm-18.72 7.254-.249-2.99-.088.008-.087.012.424 2.97Zm-3.744.234v-3h-3v3h3Zm-4.914 26.676 2.4 1.8.015-.02.015-.02-2.43-1.76ZM76.752 64.36l2.99.24.804-10.04-6.166 7.963 2.372 1.837Zm-9.594 12.168 2.286 1.943.023-.028.023-.027-2.332-1.888Zm-7.488 9.594 2.441 1.744-2.441-1.744Zm-7.488 12.402-2.65-1.407-2.34 4.407h4.99v-3Zm7.722 0v3h.05l.05-.002-.1-2.998Zm16.146-.234v3h3v-3h-3Zm0-19.188-2.999-.079-.001.04v.039h3ZM97.11 169c-5.996 0-10.216-1.914-13.126-5.456l-4.636 3.808C83.614 172.546 89.69 175 97.11 175v-6Zm-13.085-5.405c-2.988-3.803-4.507-8.287-4.507-13.591h-6c0 6.552 1.913 12.364 5.789 17.297l4.718-3.706Zm-4.507-13.591V146.26h-6V150.004h6Zm0-3.744V139.942h-6V146.26h6Zm-3.103-9.316c-4.493.155-8.826.232-13.001.232v6c4.249 0 8.651-.079 13.207-.236l-.206-5.996Zm-13.001.232H52.182v6H63.414v-6Zm-11.232 0a563.18 563.18 0 0 1-16.06-.233l-.172 5.998c5.488.157 10.899.235 16.232.235v-6Zm-15.975-.229c-5.194-.297-9.88-1.258-14.083-2.852l-2.128 5.61c4.845 1.838 10.143 2.905 15.869 3.232l.342-5.99Zm-14-2.819c-3.924-1.624-7.123-4.324-9.622-8.21l-5.047 3.244c3.118 4.85 7.25 8.39 12.375 10.51l2.294-5.544Zm-9.596-8.17c-2.388-3.848-3.761-9.678-3.761-17.84h-6c0 8.686 1.435 15.804 4.663 21.004l5.098-3.164Zm-3.761-17.84c0-4.315 1.19-9.611 3.759-15.956L7.047 89.91c-2.736 6.76-4.197 12.851-4.197 18.208h6Zm3.745-15.924c2.739-6.541 6.25-13.263 10.544-20.165l-5.094-3.17C13.603 75.997 9.938 83.003 7.06 89.878l5.534 2.316Zm10.535-20.15c4.468-7.087 9.16-13.703 14.079-19.85l-4.686-3.748c-5.066 6.333-9.889 13.133-14.469 20.398l5.076 3.2ZM37.195 52.21c8.7-10.72 16.106-19.045 22.23-25.015l-4.19-4.296C48.88 29.098 41.31 37.621 32.538 48.43l4.658 3.78Zm22.256-25.042c6.118-6.117 11.54-10.232 16.27-12.526l-2.618-5.398c-5.566 2.698-11.532 7.32-17.894 13.682l4.242 4.242Zm16.27-12.526c4.786-2.32 9.489-3.443 14.135-3.443v-6c-5.65 0-11.243 1.373-16.753 4.045l2.618 5.398ZM89.856 11.2c9.253 0 14.832 2.761 17.822 7.494l5.072-3.204C108.252 8.367 100.259 5.2 89.856 5.2v6Zm17.852 7.54c3.399 5.168 5.356 14.095 5.356 27.368h6c0-13.56-1.943-23.976-6.344-30.665l-5.012 3.298Zm5.356 27.368V56.638h6V46.108h-6Zm0 10.53V75.358h6V56.638h-6Zm0 18.72V97.588h6V75.358h-6Zm3 25.23H121.68v-6H116.064v6Zm5.616 0c4.387 0 7.719.987 10.214 2.734l3.44-4.916c-3.745-2.621-8.369-3.818-13.654-3.818v6Zm10.355 2.827c2.854 1.767 4.864 3.941 6.15 6.513l5.366-2.684c-1.834-3.668-4.66-6.642-8.358-8.93l-3.158 5.101Zm6.204 6.617c1.508 2.74 2.203 5.367 2.203 7.914h6c0-3.693-1.021-7.306-2.945-10.806l-5.258 2.892Zm2.203 7.914c0 4.134-1.316 7.945-4.058 11.509l4.756 3.658c3.498-4.548 5.302-9.629 5.302-15.167h-6Zm-4.058 11.509c-2.312 3.005-7.427 5.33-16.591 6.093l.498 5.98c9.556-.797 16.921-3.308 20.849-8.415l-4.756-3.658Zm-16.766 6.113c-.92.132-2.022.204-3.32.204v6c1.51 0 2.904-.084 4.168-.264l-.848-5.94Zm-6.32 3.204V150.004h6v-11.232h-6Zm0 11.232c0 5.163-1.451 9.69-4.344 13.684l4.86 3.52c3.659-5.054 5.484-10.823 5.484-17.204h-6Zm-4.314 13.644C106.361 167.145 102.56 169 97.11 169v6c7.03 0 12.745-2.513 16.674-7.752l-4.8-3.6ZM74.38 62.524c-3.736 4.825-6.92 8.863-9.554 12.116l4.664 3.776c2.67-3.299 5.882-7.373 9.634-12.22l-4.744-3.672Zm-9.508 12.061a147.433 147.433 0 0 0-7.643 9.793l4.882 3.488a141.466 141.466 0 0 1 7.333-9.395l-4.572-3.886Zm-7.643 9.793c-2.44 3.417-5.005 7.673-7.696 12.739l5.298 2.814c2.613-4.918 5.04-8.93 7.28-12.065l-4.882-3.488Zm-5.047 17.146H59.904v-6H52.182v6Zm7.822-.002c4.639-.154 9.986-.232 16.046-.232v-6c-6.108 0-11.525.078-16.246.236l.2 5.996ZM79.05 98.29V79.102h-6V98.29h6Zm-.001-19.11c.155-5.898.387-10.754.693-14.58l-5.98-.48c-.318 3.974-.554 8.946-.711 14.903l5.998.158Zm94.508 68.952-2.371 1.838.021.027.021.027 2.329-1.892Zm-13.806-26.208-2.864.895.009.027.009.027 2.846-.949Zm0-62.244 2.855.921.004-.013-2.859-.908Zm13.572-26.208-2.366-1.845-.005.007 2.371 1.838Zm21.762-18.486 1.419 2.643-1.419-2.643Zm64.818 4.212-1.741 2.444.013.009.012.008 1.716-2.461Zm23.868 29.25-2.73 1.244.006.014.007.014 2.717-1.272Zm3.744 71.838-2.846-.949-.005.014-.004.014 2.855.921Zm-13.806 26.208-2.366-1.845-.011.015-.012.015 2.389 1.815Zm-21.528 18.72 1.419 2.643.019-.01.019-.011-1.457-2.622Zm-14.04-42.12-2.027-2.211-.024.021-.023.022 2.074 2.168Zm8.19-13.338 2.862.899-2.862-.899Zm0-34.398-2.885.824.014.05.016.05 2.855-.924Zm-7.956-13.104-2.027 2.212.025.023.026.023 1.976-2.258Zm-29.484 0 2.023 2.215.004-.003-2.027-2.212Zm-7.956 13.104 2.854.923.004-.012.004-.012-2.862-.899Zm-.234 32.76-2.891.803.014.048.015.048 2.862-.899Zm7.956 14.274-2.247 1.988.04.045.043.045 2.164-2.078ZM223.633 169c-10.038 0-19.009-2.02-26.973-6.001l-2.683 5.366c8.885 4.443 18.79 6.635 29.656 6.635v-6Zm-26.973-6.001c-8.033-4.017-14.953-9.593-20.775-16.759l-4.657 3.784c6.347 7.81 13.934 13.934 22.749 18.341l2.683-5.366Zm-20.733-16.705c-5.706-7.358-10.154-15.789-13.33-25.319l-5.692 1.898c3.375 10.126 8.131 19.167 14.281 27.097l4.741-3.676Zm-13.313-25.265c-3.023-9.674-4.543-19.978-4.543-30.929h-6c0 11.513 1.599 22.425 4.816 32.719l5.727-1.79ZM158.071 90.1c0-10.31 1.515-20.137 4.535-29.499l-5.71-1.842c-3.221 9.982-4.825 20.434-4.825 31.341h6Zm4.539-29.512c3.02-9.514 7.386-17.93 13.083-25.278l-4.741-3.677c-6.158 7.942-10.841 16.997-14.061 27.14l5.719 1.815Zm13.078-25.27c5.837-7.484 12.772-13.37 20.816-17.689l-2.839-5.286c-8.804 4.728-16.376 11.167-22.708 19.284l4.731 3.69Zm20.816-17.689c7.942-4.265 16.961-6.429 27.129-6.429v-6c-11.048 0-21.061 2.36-29.968 7.143l2.839 5.286Zm27.129-6.429c13.324 0 24.792 3.507 34.529 10.442l3.481-4.888C250.789 9.024 238.076 5.2 223.633 5.2v6Zm34.554 10.46c9.82 6.843 17.443 16.157 22.854 28.032l5.46-2.488c-5.821-12.773-14.111-22.96-24.883-30.467l-3.431 4.922Zm22.867 28.06c5.562 11.876 8.375 25.316 8.375 40.38h6c0-15.824-2.959-30.152-8.941-42.924l-5.434 2.544Zm8.375 40.38c0 9.972-1.586 19.713-4.76 29.237l5.692 1.898c3.377-10.132 5.068-20.515 5.068-31.135h-6Zm-4.769 29.265c-3.016 9.347-7.455 17.768-13.317 25.284l4.731 3.69c6.306-8.084 11.071-17.135 14.296-27.132l-5.71-1.842Zm-13.34 25.314c-5.681 7.475-12.541 13.438-20.596 17.913l2.914 5.244c8.793-4.885 16.284-11.402 22.459-19.527l-4.777-3.63Zm-20.559 17.892c-7.941 4.265-16.96 6.429-27.128 6.429v6c11.048 0 21.061-2.36 29.967-7.143l-2.839-5.286Zm-27.128-31.329c6.672 0 12.315-1.899 16.581-5.98l-4.147-4.336c-2.91 2.783-6.939 4.316-12.434 4.316v6Zm16.535-5.937c4.18-3.831 7.171-8.752 9.025-14.65l-5.724-1.798c-1.579 5.022-4.048 8.993-7.355 12.026l4.054 4.422Zm9.025-14.65c1.813-5.768 2.712-11.845 2.712-18.215h-6c0 5.798-.817 11.265-2.436 16.417l5.724 1.798Zm2.712-18.215c0-6.369-.899-12.377-2.72-18.005l-5.709 1.846c1.611 4.98 2.429 10.36 2.429 16.159h6Zm-2.69-17.906c-1.695-5.935-4.627-10.83-8.865-14.538l-3.951 4.516c3.25 2.844 5.623 6.685 7.047 11.67l5.769-1.648Zm-8.813-14.492c-4.403-4.036-10.092-5.936-16.769-5.936v6c5.49 0 9.63 1.532 12.715 4.36l4.054-4.423Zm-16.769-5.936c-6.678 0-12.366 1.9-16.769 5.936l4.054 4.424c3.085-2.828 7.224-4.36 12.715-4.36v-6Zm-16.765 5.932c-4.044 3.692-6.949 8.546-8.795 14.42l5.724 1.8c1.585-5.046 3.984-8.928 7.117-11.788l-4.046-4.431Zm-8.788 14.397c-1.821 5.628-2.719 11.636-2.719 18.005h6c0-5.799.817-11.179 2.428-16.159l-5.709-1.847Zm-2.719 18.005c0 5.156.831 10.655 2.449 16.481l5.781-1.606c-1.501-5.406-2.23-10.36-2.23-14.875h-6Zm2.478 16.577c1.835 5.839 4.688 10.973 8.571 15.363l4.494-3.976c-3.293-3.722-5.744-8.104-7.341-13.185l-5.724 1.798Zm8.654 15.453c4.398 4.581 10.22 6.772 17.14 6.772v-6c-5.561 0-9.722-1.709-12.812-4.928l-4.328 4.156Zm173.386 40.978-2.359 1.853.02.026.021.025 2.318-1.904Zm-5.148-25.506h3v-3.105l-3.103.107.103 2.998Zm-40.482 0-.171 2.995.042.003.043.001.086-2.999Zm-14.976-3.042-1.147 2.772.041.017.042.016 1.064-2.805Zm-10.998-9.36-2.549 1.582.013.02.012.02 2.524-1.622Zm-.234-36.504-2.767-1.158-.007.016-.007.016 2.781 1.126Zm10.764-20.592-2.538-1.6-.005.008-.004.007 2.547 1.585Zm14.274-20.124-2.329-1.89-.007.008-.007.008 2.343 1.874Zm22.464-25.272 2.094 2.148.014-.013.013-.014-2.121-2.121Zm17.082-13.104 1.309 2.7-1.309-2.7Zm35.802 5.148-2.537 1.602.015.024.016.023 2.506-1.649Zm5.85 80.496h-3v3h3v-3Zm17.55 3.276-1.72 2.458.069.048.072.045 1.579-2.551Zm7.254 7.722-2.683 1.342.026.052.028.052 2.629-1.446Zm-2.106 22.698 2.378 1.829-2.378-1.829Zm-18.72 7.254-.249-2.99-.088.008-.087.012.424 2.97Zm-3.744.234v-3h-3v3h3Zm-4.914 26.676 2.4 1.8.015-.02.015-.02-2.43-1.76ZM374.965 64.36l2.99.24.804-10.04-6.166 7.963 2.372 1.837Zm-9.594 12.168 2.286 1.943.023-.028.023-.027-2.332-1.888Zm-7.488 9.594 2.441 1.744-2.441-1.744Zm-7.488 12.402-2.649-1.407-2.342 4.407h4.991v-3Zm7.722 0v3h.05l.05-.002-.1-2.998Zm16.146-.234v3h3v-3h-3Zm0-19.188-2.999-.079-.001.04v.039h3ZM395.323 169c-5.996 0-10.216-1.914-13.126-5.456l-4.636 3.808c4.266 5.194 10.342 7.648 17.762 7.648v-6Zm-13.085-5.405c-2.988-3.803-4.507-8.287-4.507-13.591h-6c0 6.552 1.913 12.364 5.789 17.297l4.718-3.706Zm-4.507-13.591V146.26h-6V150.004h6Zm0-3.744V139.942h-6V146.26h6Zm-3.103-9.316a377.39 377.39 0 0 1-13.001.232v6c4.249 0 8.651-.079 13.207-.236l-.206-5.996Zm-13.001.232H350.395v6H361.627v-6Zm-11.232 0c-5.275 0-10.628-.078-16.06-.233l-.172 5.998c5.488.157 10.898.235 16.232.235v-6Zm-15.975-.229c-5.194-.297-9.88-1.258-14.083-2.852l-2.128 5.61c4.845 1.838 10.142 2.905 15.869 3.232l.342-5.99Zm-14-2.819c-3.924-1.624-7.123-4.324-9.622-8.21l-5.047 3.244c3.118 4.85 7.25 8.39 12.375 10.51l2.294-5.544Zm-9.596-8.17c-2.388-3.848-3.761-9.678-3.761-17.84h-6c0 8.686 1.435 15.804 4.663 21.004l5.098-3.164Zm-3.761-17.84c0-4.315 1.19-9.611 3.759-15.956l-5.562-2.252c-2.736 6.76-4.197 12.851-4.197 18.208h6Zm3.745-15.924c2.739-6.541 6.249-13.263 10.544-20.165l-5.094-3.17c-4.442 7.138-8.107 14.144-10.984 21.019l5.534 2.316Zm10.535-20.15c4.467-7.087 9.161-13.703 14.078-19.85l-4.685-3.748c-5.066 6.333-9.889 13.133-14.469 20.398l5.076 3.2Zm14.065-19.833c8.7-10.72 16.106-19.045 22.229-25.015l-4.188-4.296c-6.357 6.198-13.928 14.721-22.699 25.53l4.658 3.78Zm22.256-25.042c6.118-6.117 11.54-10.232 16.27-12.526l-2.618-5.398c-5.566 2.698-11.532 7.32-17.894 13.682l4.242 4.242Zm16.27-12.526c4.786-2.32 9.489-3.443 14.135-3.443v-6c-5.65 0-11.243 1.373-16.753 4.045l2.618 5.398Zm14.135-3.443c9.253 0 14.832 2.761 17.821 7.494l5.073-3.204C406.464 8.367 398.472 5.2 388.069 5.2v6Zm17.852 7.54c3.399 5.168 5.356 14.095 5.356 27.368h6c0-13.56-1.943-23.976-6.344-30.665l-5.012 3.298Zm5.356 27.368V56.638h6V46.108h-6Zm0 10.53V75.358h6V56.638h-6Zm0 18.72V97.588h6V75.358h-6Zm3 25.23H419.893v-6H414.277v6Zm5.616 0c4.387 0 7.719.987 10.214 2.734l3.44-4.916c-3.745-2.621-8.369-3.818-13.654-3.818v6Zm10.355 2.827c2.854 1.767 4.864 3.941 6.15 6.513l5.366-2.684c-1.834-3.668-4.66-6.642-8.358-8.93l-3.158 5.101Zm6.204 6.617c1.507 2.74 2.203 5.367 2.203 7.914h6c0-3.693-1.021-7.306-2.945-10.806l-5.258 2.892Zm2.203 7.914c0 4.134-1.316 7.945-4.058 11.509l4.756 3.658c3.498-4.548 5.302-9.629 5.302-15.167h-6Zm-4.058 11.509c-2.312 3.005-7.427 5.33-16.591 6.093l.498 5.98c9.556-.797 16.92-3.308 20.849-8.415l-4.756-3.658Zm-16.766 6.113c-.92.132-2.022.204-3.32.204v6c1.51 0 2.904-.084 4.168-.264l-.848-5.94Zm-6.32 3.204V150.004h6v-11.232h-6Zm0 11.232c0 5.163-1.452 9.69-4.344 13.684l4.86 3.52c3.659-5.054 5.484-10.823 5.484-17.204h-6Zm-4.314 13.644c-2.623 3.497-6.424 5.352-11.874 5.352v6c7.03 0 12.745-2.513 16.674-7.752l-4.8-3.6ZM372.593 62.524c-3.736 4.825-6.92 8.863-9.554 12.116l4.664 3.776c2.67-3.299 5.882-7.373 9.634-12.22l-4.744-3.672Zm-9.508 12.061a147.061 147.061 0 0 0-7.643 9.793l4.882 3.488a141.174 141.174 0 0 1 7.333-9.395l-4.572-3.886Zm-7.643 9.793c-2.441 3.417-5.005 7.673-7.696 12.739l5.298 2.814c2.613-4.918 5.04-8.93 7.28-12.065l-4.882-3.488Zm-5.047 17.146H358.117v-6H350.395v6Zm7.822-.002c4.638-.154 9.986-.232 16.046-.232v-6c-6.108 0-11.525.078-16.246.236l.2 5.996Zm19.046-3.232V79.102h-6V98.29h6Zm-.001-19.11c.155-5.898.387-10.754.693-14.58l-5.981-.48c-.317 3.974-.553 8.946-.71 14.903l5.998.158Z" mask="url(#b)"/></g><defs><clipPath id="a"><path fill="#fff" d="M0 0h448v180H0z"/></clipPath></defs></svg>