<svg fill="none" height="404" viewBox="0 0 410 404" width="410" xmlns="http://www.w3.org/2000/svg" xmlns:xlink="http://www.w3.org/1999/xlink"><linearGradient id="a" gradientUnits="userSpaceOnUse" x1="6.00017" x2="235" y1="32.9999" y2="344"><stop offset="0" stop-color="#41d1ff"/><stop offset="1" stop-color="#bd34fe"/></linearGradient><linearGradient id="b" gradientUnits="userSpaceOnUse" x1="194.651" x2="236.076" y1="8.81818" y2="292.989"><stop offset="0" stop-color="#ffea83"/><stop offset=".0833333" stop-color="#ffdd35"/><stop offset="1" stop-color="#ffa800"/></linearGradient><path d="m399.641 59.5246-183.998 329.0204c-3.799 6.793-13.559 6.833-17.415.073l-187.6463-329.0617c-4.20083-7.3667 2.0985-16.2898 10.4464-14.7977l184.1949 32.9238c1.175.21 2.378.208 3.553-.0061l180.343-32.8705c8.32-1.5164 14.649 7.3376 10.522 14.7188z" fill="url(#a)"/><path d="m292.965 1.5744-136.164 26.6808c-2.238.4385-3.895 2.3351-4.03 4.6112l-8.376 141.4636c-.197 3.332 2.863 5.918 6.115 5.168l37.91-8.749c3.547-.818 6.752 2.306 6.023 5.873l-11.263 55.153c-.758 3.712 2.727 6.886 6.352 5.785l23.415-7.114c3.63-1.102 7.118 2.081 6.35 5.796l-17.899 86.633c-1.12 5.419 6.088 8.374 9.094 3.728l2.008-3.103 110.954-221.428c1.858-3.7075-1.346-7.935-5.418-7.1492l-39.022 7.5312c-3.667.707-6.787-2.708-5.752-6.2957l25.469-88.29141c1.036-3.59375-2.095-7.011709-5.766-6.29249z" fill="url(#b)"/><g stroke-linejoin="round" stroke-width=".2" transform="matrix(.15789659 0 0 .15890333 54.892928 275.21638)"><path d="m1436.62 603.304 56.39-142.599h162.82l-77.27-216.315 96.64-244.38947166 276.8 734.93247166h-204.13l-47.3-131.629z" fill="#3e3e3e"/><path d="m1262.47 734.935 296.32-734.93343407-196.45.00097657-202.7 474.9304575-144.14-474.92948094h-151.001l-154.768 474.92948094-109.146-216.416-98.773 304.302 100.284 172.116h193.331l139.857-425.91 133.346 425.91z" fill="#2e859c"/><path d="m186.476 482.643h121.003c36.654 0 69.293-4.091 97.917-12.273l31.293-96.408 87.459-269.446c-6.664-10.5625-14.272-20.5493-22.824-29.9591-44.905-49.7049-110.605-74.55649373-197.102-74.55649373h-304.22200381v734.93259373h186.47600381zm160.166-313.564c17.54 17.653 26.309 41.276 26.309 70.871 0 29.822-7.713 53.474-23.138 70.956-16.91 19.425-48.047 29.137-93.409 29.137h-69.928v-197.445h70.442c42.277 0 72.185 8.827 89.724 26.481z" fill="#3e3e3e"/></g></svg>