<svg xmlns="http://www.w3.org/2000/svg" width="256" height="256" fill="none"><rect width="256" height="256" fill="url(#a)" rx="64"/><path fill="#fff" d="M121.629 138.098c-2.24-.175-3.55-.979-4.136-2.726-.517-1.573.069-3.04 1.827-4.298a9.261 9.261 0 0 1 1.792-1.049c14.892-6.64 27.887-16.145 40.193-26.734 1.93-1.643 3.792-3.39 5.756-5.033 1.724-1.467 3.344-1.502 4.619-.174 1.517 1.572 1.586 3.704.138 5.312-7.549 8.282-16.27 15.097-25.611 21.073-6.894 4.403-14.064 8.387-21.131 12.476-1.103.559-2.309.769-3.447 1.153ZM134.418 148.512c-2.723 0-4.412-1.083-4.895-2.726-.448-1.537.379-3.215 2.275-4.228 1.31-.699 2.723-1.223 4.102-1.818 16.27-6.989 30.955-16.46 43.984-28.551.311-.28.586-.559.931-.769 1.103-.734 2.31-1.188 3.516-.28 1.137.874 1.448 2.167.896 3.46-.551 1.258-1.172 2.621-2.171 3.46-4.24 3.669-8.411 7.374-12.927 10.624-10.306 7.408-21.337 13.664-32.471 19.675-1.172.664-2.551.909-3.24 1.153ZM76.439 172.975c-1.241-2.586-.965-4.962-.31-7.339.896-3.215 2.688-5.906 4.894-8.317 5.343-5.871 11.72-10.414 18.339-14.678 1.309-.839 2.619-1.677 3.998-2.376 1.93-.979 3.964-1.223 5.998-.315 2.241 1.014 2.551 3.145.551 4.648-1.309 1.014-2.792 1.817-4.239 2.656-7.136 4.054-14.133 8.213-20.131 13.944-3.585 3.355-6.722 7.094-9.1 11.777ZM94.329 175.072c.827-3.844 2.516-7.269 4.86-10.309 3.826-4.928 8.342-9.157 13.685-12.372 1.861-1.118 3.998-1.712 5.998-2.516.413-.175.896-.21 1.344-.175 1.482.035 3.24.175 3.585 1.748.241 1.048-.552 2.516-1.275 3.494-.759 1.014-1.965 1.783-3.103 2.447-8.652 4.892-16.614 10.763-24.336 17.054-.241.21-.482.419-.758.629ZM202.531 136.665c.897 2.097.414 3.914-.344 5.662-4.55 10.309-10.962 19.36-18.511 27.608-4.205 4.613-8.755 8.911-13.202 13.28-.793.803-1.793 1.467-2.827 1.957-.586.279-1.689.314-2.033-.07-.449-.455-.69-1.643-.414-2.167.793-1.433 1.723-2.901 2.964-3.949 7.48-6.395 14.478-13.28 20.752-20.898 5.067-6.151 9.41-12.756 12.788-20.025.276-.454.552-.909.827-1.398ZM98.948 203.414c7.445.384 14.822.14 22.164-1.014 12.306-1.957 23.75-6.115 34.023-13.419.93-.664 1.93-1.328 3.033-1.608.724-.209 1.62.245 2.447.385-.275.699-.344 1.677-.861 2.062-2.689 2.061-5.343 4.263-8.273 5.941-15.65 9.051-32.471 11.287-50.086 8.177-.827-.105-1.654-.349-2.447-.524ZM198.119 129.326c-.517 1.503-.793 2.761-1.379 3.879-3.516 6.745-8.617 12.197-14.098 17.264-1.034.979-2.379 1.852-3.895.804-1.034-.699-1.069-2.411-.069-4.159a14.972 14.972 0 0 1 2.206-2.865c4.516-4.544 8.652-9.331 12.065-14.783.379-.594.758-1.258 1.309-1.573.724-.454 1.827-1.013 2.413-.768.69.279 1 1.467 1.448 2.201ZM119.044 210.159c6.17-1.223 12.409-2.167 18.511-3.705 8.686-2.166 16.373-6.57 23.819-11.532 1.62-1.084 3.309-2.097 5.101-2.866.69-.314 1.689.14 2.551.245-.241.838-.276 1.887-.793 2.446-1.31 1.363-2.826 2.586-4.377 3.669-9.307 6.466-19.821 9.611-30.886 10.974-4.584.559-9.238.664-13.891.943-.035-.069-.035-.104-.035-.174ZM65.305 77.255c.276-.629.379-1.433.827-1.922 1.138-1.188 2.31-2.446 3.688-3.355 11.72-7.933 24.233-14.398 36.677-21.003.862-.454 1.965-.56 2.964-.629.448-.035.931.49 1.414.734-.311.384-.552.804-.897 1.153-.275.28-.689.385-1.034.594-11.65 6.535-23.302 13.035-34.953 19.606-2.31 1.292-4.412 2.9-6.652 4.368-.517.314-1.034.594-1.586.874-.103-.14-.276-.28-.448-.42ZM110.082 65.828c-.517 0-.724.07-.862 0-1-.455-1.999-.91-2.964-1.363.689-.77 1.241-1.748 2.068-2.237 2.895-1.747 5.86-3.46 8.893-4.893 1.517-.699 3.275-.978 4.929-1.153.586-.07 1.586.7 1.758 1.293.173.56-.241 1.747-.758 2.027-3.895 2.167-7.894 4.194-11.892 6.22-.414.175-1 .07-1.172.106ZM179.574 83.825c2.62 0 3.861 1.433 3.344 3.355-.828 3.075-2.517 5.731-4.861 7.863-1.172 1.084-2.619 1.153-3.964.175-1.31-.979-1.723-2.411-.965-3.844 1.069-2.027 2.241-4.054 3.688-5.836.793-.944 2.207-1.363 2.758-1.713ZM174.99 188.002c-.483-1.817.689-2.656 1.689-3.599 2.309-2.167 4.756-4.229 6.963-6.465 7.859-7.968 14.339-16.915 18.82-27.259.138-.28.311-.559.586-1.014-1.413 10.135-20.992 36.904-28.058 38.337ZM163.89 67.82c-2.309.034-3.895-2.412-2.861-4.299 1.31-2.376 2.964-4.543 4.653-6.675.862-1.083 2.138-.594 3.137.105 1.103.769 1.793 1.957 1.138 3.145-1.379 2.412-2.965 4.683-4.585 6.92-.344.489-1.172.629-1.482.803ZM152.032 77.57c-.93-.7-2.24-1.258-2.688-2.202-.276-.56.586-1.957 1.24-2.656 1.241-1.258 2.689-2.341 4.102-3.425 1.69-1.293 3.689-1.328 5.068-.14.792.7 1.447 1.643.655 2.552-2 2.306-4.275 4.368-7.239 5.347-.276.104-.552.104-.828.14-.137.14-.241.279-.31.384ZM185.503 105.073c1.344-2.202 2.585-4.438 4.102-6.5.31-.42 1.758-.49 2.309-.105.793.49 1.586 1.468 1.724 2.341.138.979-.379 2.132-.827 3.111-.483 1.118-1.241 2.097-1.827 3.145-.655 1.153-1.379 2.027-2.861 1.468-1.448-.559-2.241-1.573-2.172-3.18-.172-.105-.31-.21-.448-.28ZM196.12 90.57c0 1.223.172 2.481-.069 3.635-.172.768-.862 1.852-1.482 1.992-.655.14-1.827-.455-2.275-1.084-.552-.769-.724-1.922-.759-2.935-.034-1.957.138-3.915.276-5.906.069-1.084-.069-2.622 1.275-2.622.862 0 2.138 1.049 2.482 1.923.586 1.502.552 3.25.793 4.892-.069.07-.138.07-.241.105ZM145.207 66.212c-.931-.35-1.758-.524-2.482-.944-1.827-1.048-1.896-2.48-.275-3.809.758-.629 1.516-1.223 2.275-1.852 1.861-1.468 4.205-1.328 5.825.384.758.804.896 1.573 0 2.377-1.069.943-2.068 1.992-3.206 2.865-.62.455-1.413.664-2.137.979ZM157.892 52.583c-1.448 1.992-2.482 3.914-3.998 5.277-1.034.943-2.689.454-3.758-.594-1.068-1.084-.413-2.132.242-3.11.62-.98 1.172-1.993 1.861-2.901.896-1.119 2.137-1.468 3.378-.804.793.35 1.345 1.188 2.275 2.132ZM101.706 48.564c-12.686 6.78-24.612 13.804-35.574 22.89 2.723-5.067 30.058-22.785 35.574-22.89ZM132.591 50.032c.414.034.827 0 1.172.174.793.385 1.517.909 2.275 1.363-.586.56-1.103 1.188-1.758 1.678a13.808 13.808 0 0 1-2.654 1.607c-.759.35-1.724.769-2.413.594-1.138-.28-2.137-1.083-3.171-1.642.723-.664 1.344-1.468 2.171-1.957 1.345-.804 2.827-1.433 4.24-2.132.035.105.069.21.138.315ZM200.118 94.065c.345.629.828 1.223.966 1.887.723 3.564 1.413 7.164 1.964 10.764.104.803-.517 1.747-.827 2.621-.551-.804-1.448-1.538-1.551-2.377-.552-3.774-.862-7.618-1.241-11.427-.034-.455.172-.944.241-1.398.138-.035.311-.035.448-.07ZM200.911 111.398c.483 1.189 1.241 2.132 1.138 2.971a72.34 72.34 0 0 1-1.448 8.527c-.241 1.118-1.275 1.083-1.655.035-.413-1.048-.758-2.272-.586-3.32.38-2.376 1.103-4.718 1.724-7.094.069-.28.31-.455.827-1.119ZM137.52 70.755c-2.034.035-3.998-1.223-3.964-2.586.035-1.293 2.068-2.586 4.033-2.516 1.862.07 3.206 1.118 3.206 2.446 0 1.433-1.482 2.621-3.275 2.656ZM61.651 80.156c-.483.943-.896 1.957-1.482 2.796-3.55 4.892-7.17 9.715-10.169 13.769 2.206-5.837 6.308-11.638 10.996-17.02.207.14.414.28.655.455ZM138.003 49.996c-1.034-.524-1.965-.978-2.896-1.467.69-.734 1.276-1.818 2.103-2.132 1.275-.454 2.758-.49 4.136-.524.449 0 1.138.524 1.241.943.104.315-.448 1.014-.861 1.258-1.103.734-2.344 1.259-3.723 1.922ZM113.46 48.32c2.482-2.273 7.17-3.32 9.41-2.203-2.309 2.272-7.307 3.53-9.41 2.202ZM90.71 201.212c-6.343-.943-12.272-3.914-16.925-8.177a2533.88 2533.88 0 0 0 16.925 8.177ZM204.462 135.267c-.897-3.809.655-7.304 1.241-10.903.758 3.774-.035 7.339-1.241 10.903Z"/><path stroke="#fff" stroke-width="1.56" d="M121.629 138.098c-2.24-.175-3.55-.979-4.136-2.726-.517-1.573.069-3.04 1.827-4.298a9.261 9.261 0 0 1 1.792-1.049c14.892-6.64 27.887-16.145 40.193-26.734 1.93-1.643 3.792-3.39 5.756-5.033 1.724-1.467 3.344-1.502 4.619-.174 1.517 1.572 1.586 3.704.138 5.312-7.549 8.282-16.27 15.097-25.611 21.073-6.894 4.403-14.064 8.387-21.131 12.476-1.103.559-2.309.769-3.447 1.153ZM134.418 148.512c-2.723 0-4.412-1.083-4.895-2.726-.448-1.537.379-3.215 2.275-4.228 1.31-.699 2.723-1.223 4.102-1.818 16.27-6.989 30.955-16.46 43.984-28.551.311-.28.586-.559.931-.769 1.103-.734 2.31-1.188 3.516-.28 1.137.874 1.448 2.167.896 3.46-.551 1.258-1.172 2.621-2.171 3.46-4.24 3.669-8.411 7.374-12.927 10.624-10.306 7.408-21.337 13.664-32.471 19.675-1.172.664-2.551.909-3.24 1.153ZM76.439 172.975c-1.241-2.586-.965-4.962-.31-7.339.896-3.215 2.688-5.906 4.894-8.317 5.343-5.871 11.72-10.414 18.339-14.678 1.309-.839 2.619-1.677 3.998-2.376 1.93-.979 3.964-1.223 5.998-.315 2.241 1.014 2.551 3.145.551 4.648-1.309 1.014-2.792 1.817-4.239 2.656-7.136 4.054-14.133 8.213-20.131 13.944-3.585 3.355-6.722 7.094-9.1 11.777ZM94.329 175.072c.827-3.844 2.516-7.269 4.86-10.309 3.826-4.928 8.342-9.157 13.685-12.372 1.861-1.118 3.998-1.712 5.998-2.516.413-.175.896-.21 1.344-.175 1.482.035 3.24.175 3.585 1.748.241 1.048-.552 2.516-1.275 3.494-.759 1.014-1.965 1.783-3.103 2.447-8.652 4.892-16.614 10.763-24.336 17.054-.241.21-.482.419-.758.629ZM202.531 136.665c.897 2.097.414 3.914-.344 5.662-4.55 10.309-10.962 19.36-18.511 27.608-4.205 4.613-8.755 8.911-13.202 13.28-.793.803-1.793 1.467-2.827 1.957-.586.279-1.689.314-2.033-.07-.449-.455-.69-1.643-.414-2.167.793-1.433 1.723-2.901 2.964-3.949 7.48-6.395 14.478-13.28 20.752-20.898 5.067-6.151 9.41-12.756 12.788-20.025.276-.454.552-.909.827-1.398ZM98.948 203.414c7.445.384 14.822.14 22.164-1.014 12.306-1.957 23.75-6.115 34.023-13.419.93-.664 1.93-1.328 3.033-1.608.724-.209 1.62.245 2.447.385-.275.699-.344 1.677-.861 2.062-2.689 2.061-5.343 4.263-8.273 5.941-15.65 9.051-32.471 11.287-50.086 8.177-.827-.105-1.654-.349-2.447-.524ZM198.119 129.326c-.517 1.503-.793 2.761-1.379 3.879-3.516 6.745-8.617 12.197-14.098 17.264-1.034.979-2.379 1.852-3.895.804-1.034-.699-1.069-2.411-.069-4.159a14.972 14.972 0 0 1 2.206-2.865c4.516-4.544 8.652-9.331 12.065-14.783.379-.594.758-1.258 1.309-1.573.724-.454 1.827-1.013 2.413-.768.69.279 1 1.467 1.448 2.201ZM119.044 210.159c6.17-1.223 12.409-2.167 18.511-3.705 8.686-2.166 16.373-6.57 23.819-11.532 1.62-1.084 3.309-2.097 5.101-2.866.69-.314 1.689.14 2.551.245-.241.838-.276 1.887-.793 2.446-1.31 1.363-2.826 2.586-4.377 3.669-9.307 6.466-19.821 9.611-30.886 10.974-4.584.559-9.238.664-13.891.943-.035-.069-.035-.104-.035-.174ZM65.305 77.255c.276-.629.379-1.433.827-1.922 1.138-1.188 2.31-2.446 3.688-3.355 11.72-7.933 24.233-14.398 36.677-21.003.862-.454 1.965-.56 2.964-.629.448-.035.931.49 1.414.734-.311.384-.552.804-.897 1.153-.275.28-.689.385-1.034.594-11.65 6.535-23.302 13.035-34.953 19.606-2.31 1.292-4.412 2.9-6.652 4.368-.517.314-1.034.594-1.586.874-.103-.14-.276-.28-.448-.42ZM110.082 65.828c-.517 0-.724.07-.862 0-1-.455-1.999-.91-2.964-1.363.689-.77 1.241-1.748 2.068-2.237 2.895-1.747 5.86-3.46 8.893-4.893 1.517-.699 3.275-.978 4.929-1.153.586-.07 1.586.7 1.758 1.293.173.56-.241 1.747-.758 2.027-3.895 2.167-7.894 4.194-11.892 6.22-.414.175-1 .07-1.172.106ZM179.574 83.825c2.62 0 3.861 1.433 3.344 3.355-.828 3.075-2.517 5.731-4.861 7.863-1.172 1.084-2.619 1.153-3.964.175-1.31-.979-1.723-2.411-.965-3.844 1.069-2.027 2.241-4.054 3.688-5.836.793-.944 2.207-1.363 2.758-1.713ZM174.99 188.002c-.483-1.817.689-2.656 1.689-3.599 2.309-2.167 4.756-4.229 6.963-6.465 7.859-7.968 14.339-16.915 18.82-27.259.138-.28.311-.559.586-1.014-1.413 10.135-20.992 36.904-28.058 38.337ZM163.89 67.82c-2.309.034-3.895-2.412-2.861-4.299 1.31-2.376 2.964-4.543 4.653-6.675.862-1.083 2.138-.594 3.137.105 1.103.769 1.793 1.957 1.138 3.145-1.379 2.412-2.965 4.683-4.585 6.92-.344.489-1.172.629-1.482.803ZM152.032 77.57c-.93-.7-2.24-1.258-2.688-2.202-.276-.56.586-1.957 1.24-2.656 1.241-1.258 2.689-2.341 4.102-3.425 1.69-1.293 3.689-1.328 5.068-.14.792.7 1.447 1.643.655 2.552-2 2.306-4.275 4.368-7.239 5.347-.276.104-.552.104-.828.14-.137.14-.241.279-.31.384ZM185.503 105.073c1.344-2.202 2.585-4.438 4.102-6.5.31-.42 1.758-.49 2.309-.105.793.49 1.586 1.468 1.724 2.341.138.979-.379 2.132-.827 3.111-.483 1.118-1.241 2.097-1.827 3.145-.655 1.153-1.379 2.027-2.861 1.468-1.448-.559-2.241-1.573-2.172-3.18-.172-.105-.31-.21-.448-.28ZM196.12 90.57c0 1.223.172 2.481-.069 3.635-.172.768-.862 1.852-1.482 1.992-.655.14-1.827-.455-2.275-1.084-.552-.769-.724-1.922-.759-2.935-.034-1.957.138-3.915.276-5.906.069-1.084-.069-2.622 1.275-2.622.862 0 2.138 1.049 2.482 1.923.586 1.502.552 3.25.793 4.892-.069.07-.138.07-.241.105ZM145.207 66.212c-.931-.35-1.758-.524-2.482-.944-1.827-1.048-1.896-2.48-.275-3.809.758-.629 1.516-1.223 2.275-1.852 1.861-1.468 4.205-1.328 5.825.384.758.804.896 1.573 0 2.377-1.069.943-2.068 1.992-3.206 2.865-.62.455-1.413.664-2.137.979ZM157.892 52.583c-1.448 1.992-2.482 3.914-3.998 5.277-1.034.943-2.689.454-3.758-.594-1.068-1.084-.413-2.132.242-3.11.62-.98 1.172-1.993 1.861-2.901.896-1.119 2.137-1.468 3.378-.804.793.35 1.345 1.188 2.275 2.132ZM101.706 48.564c-12.686 6.78-24.612 13.804-35.574 22.89 2.723-5.067 30.058-22.785 35.574-22.89ZM132.591 50.032c.414.034.827 0 1.172.174.793.385 1.517.909 2.275 1.363-.586.56-1.103 1.188-1.758 1.678a13.808 13.808 0 0 1-2.654 1.607c-.759.35-1.724.769-2.413.594-1.138-.28-2.137-1.083-3.171-1.642.723-.664 1.344-1.468 2.171-1.957 1.345-.804 2.827-1.433 4.24-2.132.035.105.069.21.138.315ZM200.118 94.065c.345.629.828 1.223.966 1.887.723 3.564 1.413 7.164 1.964 10.764.104.803-.517 1.747-.827 2.621-.551-.804-1.448-1.538-1.551-2.377-.552-3.774-.862-7.618-1.241-11.427-.034-.455.172-.944.241-1.398.138-.035.311-.035.448-.07ZM200.911 111.398c.483 1.189 1.241 2.132 1.138 2.971a72.34 72.34 0 0 1-1.448 8.527c-.241 1.118-1.275 1.083-1.655.035-.413-1.048-.758-2.272-.586-3.32.38-2.376 1.103-4.718 1.724-7.094.069-.28.31-.455.827-1.119ZM137.52 70.755c-2.034.035-3.998-1.223-3.964-2.586.035-1.293 2.068-2.586 4.033-2.516 1.862.07 3.206 1.118 3.206 2.446 0 1.433-1.482 2.621-3.275 2.656ZM61.651 80.156c-.483.943-.896 1.957-1.482 2.796-3.55 4.892-7.17 9.715-10.169 13.769 2.206-5.837 6.308-11.638 10.996-17.02.207.14.414.28.655.455ZM138.003 49.996c-1.034-.524-1.965-.978-2.896-1.467.69-.734 1.276-1.818 2.103-2.132 1.275-.454 2.758-.49 4.136-.524.449 0 1.138.524 1.241.943.104.315-.448 1.014-.861 1.258-1.103.734-2.344 1.259-3.723 1.922ZM113.46 48.32c2.482-2.273 7.17-3.32 9.41-2.203-2.309 2.272-7.307 3.53-9.41 2.202ZM90.71 201.212c-6.343-.943-12.272-3.914-16.925-8.177a2533.88 2533.88 0 0 0 16.925 8.177ZM204.462 135.267c-.897-3.809.655-7.304 1.241-10.903.758 3.774-.035 7.339-1.241 10.903Z"/><defs><linearGradient id="a" x1="128" x2="128" y1="0" y2="256" gradientUnits="userSpaceOnUse"><stop stop-color="#FFBD38"/><stop offset="1" stop-color="#F90"/></linearGradient></defs></svg>