<svg width="20" height="20" viewBox="0 0 20 20" fill="none" xmlns="http://www.w3.org/2000/svg">
<path fill-rule="evenodd" clip-rule="evenodd" d="M1.04167 9.58329C1.04167 4.87496 4.875 1.04163 9.58334 1.04163C14.2917 1.04163 18.125 4.87496 18.125 9.58329C18.125 14.2916 14.2917 18.125 9.58334 18.125C4.875 18.125 1.04167 14.2916 1.04167 9.58329ZM2.29167 9.58329C2.29167 13.6 5.55834 16.875 9.58334 16.875C13.6083 16.875 16.875 13.6 16.875 9.58329C16.875 5.56663 13.6083 2.29163 9.58334 2.29163C5.55834 2.29163 2.29167 5.56663 2.29167 9.58329Z" fill="black"/>
<path d="M17.892 18.775L16.2254 17.1083C15.9837 16.8666 15.9837 16.4666 16.2254 16.225C16.467 15.9833 16.867 15.9833 17.1087 16.225L18.7754 17.8916C19.017 18.1333 19.017 18.5333 18.7754 18.775C18.6504 18.9 18.492 18.9583 18.3337 18.9583C18.1754 18.9583 18.017 18.9 17.892 18.775Z" fill="black"/>
</svg>
